<svg width="8" height="12" viewBox="0 0 8 12" fill="none" xmlns="http://www.w3.org/2000/svg">
<path d="M5.40982 0.99999L1.16982 5.28999C1.07609 5.38295 1.0017 5.49355 0.95093 5.61541C0.900162 5.73727 0.874023 5.86798 0.874023 5.99999C0.874023 6.132 0.900162 6.26271 0.95093 6.38457C1.0017 6.50643 1.07609 6.61703 1.16982 6.70999L5.40982 10.95C5.50278 11.0437 5.61339 11.1181 5.73524 11.1689C5.8571 11.2197 5.98781 11.2458 6.11982 11.2458C6.25183 11.2458 6.38254 11.2197 6.5044 11.1689C6.62626 11.1181 6.73686 11.0437 6.82982 10.95C7.01607 10.7626 7.12061 10.5092 7.12061 10.245C7.12061 9.9808 7.01607 9.72735 6.82982 9.53999L3.28982 5.99999L6.82982 2.45999C7.01457 2.27373 7.11872 2.02233 7.11982 1.75999C7.12058 1.62838 7.09536 1.49792 7.04559 1.37608C6.99583 1.25425 6.9225 1.14343 6.82982 1.04999C6.7402 0.952915 6.63224 0.874561 6.51216 0.819454C6.39209 0.764347 6.26228 0.73358 6.13025 0.728931C5.99821 0.724282 5.86656 0.745843 5.74291 0.792368C5.61925 0.838893 5.50604 0.909459 5.40982 0.99999Z" fill="#606060"/>
</svg>
