<svg width="63" height="62" viewBox="0 0 63 62" fill="none" xmlns="http://www.w3.org/2000/svg">
<path d="M12.1669 6.29071C7.31159 9.92163 3.66809 14.838 1.61652 20.4075C0.431126 23.6255 2.85411 26.8182 6.28483 27.3255C9.71555 27.8329 12.8277 25.411 14.436 22.3771C15.7121 19.9699 17.5187 17.8453 19.7531 16.1744C23.6758 13.2409 28.6057 11.9386 33.4885 12.5461C38.3713 13.1535 42.8196 15.6224 45.8823 19.4249C48.9451 23.2274 50.3791 28.0618 49.8779 32.8944L62.375 34.1572C63.2103 26.103 60.8203 18.0457 55.7157 11.7082C50.6112 5.37062 43.1973 1.25577 35.0593 0.243404C26.9212 -0.768963 18.7049 1.40149 12.1669 6.29071Z" fill="url(#paint0_angular_43_109)"/>
<path d="M46.3044 50.7674C50.1887 47.8627 53.1035 43.9296 54.7447 39.4741C55.693 36.8996 53.7547 34.3455 51.0101 33.9396C48.2655 33.5337 45.7758 35.4712 44.4891 37.8984C43.4683 39.8241 42.023 41.5237 40.2355 42.8605C37.0973 45.2073 33.1535 46.2491 29.2472 45.7632C25.341 45.2772 21.7824 43.3021 19.3322 40.2601C16.882 37.2181 15.7348 33.3506 16.1358 29.4846L6.13815 28.4743C5.46985 34.9177 7.38191 41.3635 11.4655 46.4335C15.5491 51.5035 21.4802 54.7953 27.9906 55.6052C34.501 56.4151 41.0741 54.6788 46.3044 50.7674Z" fill="url(#paint1_angular_43_109)"/>
<path d="M51.2454 54.8086C57.5451 49.6235 61.5396 42.2115 62.375 34.1572L49.8779 32.8943C49.3767 37.7269 46.98 42.1741 43.2002 45.2852C39.4204 48.3962 34.5575 49.9242 29.6513 49.5424C24.7451 49.1606 20.1849 46.8993 16.9457 43.2421C15.1007 41.1589 13.7677 38.7171 13.0123 36.1046C12.0601 32.812 9.50968 29.8179 6.04598 29.6285C2.58228 29.4391 -0.445848 32.081 0.0543369 35.4693C0.920013 41.3336 3.47868 46.8767 7.48791 51.4034C12.8866 57.4989 20.4869 61.2677 28.664 61.904C36.841 62.5404 44.9458 59.9937 51.2454 54.8086Z" fill="url(#paint2_angular_43_109)"/>
<path d="M15.0418 11.9532C10.0021 16.1012 6.80647 22.0309 6.13817 28.4743L16.1358 29.4846C16.5368 25.6185 18.4541 22.0608 21.478 19.5719C24.5018 17.0831 28.392 15.8607 32.317 16.1661C36.242 16.4716 39.8901 18.2806 42.4815 21.2064C43.9575 22.8729 45.0239 24.8264 45.6282 26.9163C46.3899 29.5504 48.4302 31.9457 51.2012 32.0972C53.9721 32.2487 56.3946 30.1352 55.9945 27.4245C55.302 22.7331 53.255 18.2987 50.0477 14.6773C45.7288 9.80097 39.6485 6.78595 33.1069 6.27688C26.5653 5.76782 20.0815 7.80511 15.0418 11.9532Z" fill="url(#paint3_angular_43_109)"/>
<defs>
<radialGradient id="paint0_angular_43_109" cx="0" cy="0" r="1" gradientUnits="userSpaceOnUse" gradientTransform="translate(31.1323 31) rotate(169.826) scale(26.3239 25.9163)">
<stop offset="0.0447915" stop-color="#FEDF13" stop-opacity="0"/>
<stop offset="0.654035" stop-color="#FEDF13"/>
<stop offset="0.99836" stop-color="#FFB800"/>
</radialGradient>
<radialGradient id="paint1_angular_43_109" cx="0" cy="0" r="1" gradientUnits="userSpaceOnUse" gradientTransform="translate(31.1321 31) rotate(-10.1744) scale(21.059 20.733)">
<stop offset="0.0447915" stop-color="#FEDF13" stop-opacity="0"/>
<stop offset="0.654035" stop-color="#FEDF13"/>
<stop offset="0.99836" stop-color="#FFB800"/>
</radialGradient>
<radialGradient id="paint2_angular_43_109" cx="0" cy="0" r="1" gradientUnits="userSpaceOnUse" gradientTransform="translate(30.4871 30.5487) rotate(-180) scale(28.1419 26.282)">
<stop offset="0.0447915" stop-color="#FEDF13" stop-opacity="0"/>
<stop offset="0.654035" stop-color="#FEDF13"/>
<stop offset="0.99836" stop-color="#FFB800"/>
</radialGradient>
<radialGradient id="paint3_angular_43_109" cx="0" cy="0" r="1" gradientUnits="userSpaceOnUse" gradientTransform="translate(31.6484 31.361) scale(22.5134 21.0255)">
<stop offset="0.0447915" stop-color="#FEDF13" stop-opacity="0"/>
<stop offset="0.654035" stop-color="#FEDF13"/>
<stop offset="0.99836" stop-color="#FFB800"/>
</radialGradient>
</defs>
</svg>
