<svg width="160" height="62" viewBox="0 0 160 62" fill="none" xmlns="http://www.w3.org/2000/svg">
<path d="M83.5629 26.1987C82.4909 26.1987 81.4926 26.0201 80.568 25.663C79.6568 25.3059 78.8663 24.8099 78.1963 24.175C77.5263 23.5269 77.0037 22.773 76.6285 21.9133C76.2533 21.0535 76.0657 20.1144 76.0657 19.096C76.0657 18.0775 76.2533 17.1384 76.6285 16.2787C77.0037 15.419 77.5263 14.6717 78.1963 14.0368C78.8663 13.3887 79.6568 12.8861 80.568 12.5289C81.4792 12.1718 82.4775 11.9933 83.5629 11.9933C84.6349 11.9933 85.6198 12.1718 86.5176 12.5289C87.4288 12.8728 88.2194 13.3688 88.8894 14.0169C89.5728 14.6518 90.0954 15.3991 90.4572 16.2589C90.8324 17.1186 91.02 18.0643 91.02 19.096C91.02 20.1277 90.8324 21.0734 90.4572 21.9331C90.0954 22.7928 89.5728 23.5467 88.8894 24.1949C88.2194 24.8297 87.4288 25.3257 86.5176 25.6829C85.6198 26.0267 84.6349 26.1987 83.5629 26.1987ZM83.5629 24.4329C84.3401 24.4329 85.057 24.3007 85.7136 24.0361C86.3836 23.7716 86.9598 23.4013 87.4422 22.9251C87.938 22.4357 88.3199 21.867 88.5879 21.2189C88.8693 20.5707 89.01 19.8631 89.01 19.096C89.01 18.3288 88.8693 17.6212 88.5879 16.9731C88.3199 16.325 87.938 15.7629 87.4422 15.2867C86.9598 14.7973 86.3836 14.4203 85.7136 14.1558C85.057 13.8913 84.3401 13.759 83.5629 13.759C82.7723 13.759 82.042 13.8913 81.372 14.1558C80.7154 14.4203 80.1392 14.7973 79.6434 15.2867C79.1477 15.7629 78.7591 16.325 78.4777 16.9731C78.2097 17.6212 78.0757 18.3288 78.0757 19.096C78.0757 19.8631 78.2097 20.5707 78.4777 21.2189C78.7591 21.867 79.1477 22.4357 79.6434 22.9251C80.1392 23.4013 80.7154 23.7716 81.372 24.0361C82.042 24.3007 82.7723 24.4329 83.5629 24.4329Z" fill="#333333"/>
<path d="M98.4739 30.008C97.4957 30.008 96.5443 29.8691 95.6197 29.5913C94.7085 29.3268 93.9648 28.9432 93.3886 28.4406L94.3132 26.9725C94.809 27.3957 95.4187 27.7264 96.1423 27.9645C96.8659 28.2158 97.623 28.3414 98.4136 28.3414C99.6732 28.3414 100.598 28.0504 101.187 27.4685C101.777 26.8865 102.072 26.0003 102.072 24.8099V22.5878L102.273 20.5046L102.172 18.4016V15.5248H104.001V24.6115C104.001 26.4632 103.532 27.8256 102.594 28.6985C101.656 29.5715 100.283 30.008 98.4739 30.008ZM98.2327 25.6035C97.2009 25.6035 96.2763 25.3919 95.4589 24.9686C94.6549 24.5321 94.0117 23.9303 93.5293 23.1632C93.0603 22.396 92.8258 21.5098 92.8258 20.5046C92.8258 19.4862 93.0603 18.6 93.5293 17.8461C94.0117 17.0789 94.6549 16.4837 95.4589 16.0605C96.2763 15.6372 97.2009 15.4256 98.2327 15.4256C99.1439 15.4256 99.9747 15.6107 100.725 15.9811C101.475 16.3382 102.072 16.8937 102.514 17.6477C102.97 18.4016 103.197 19.3539 103.197 20.5046C103.197 21.6421 102.97 22.5878 102.514 23.3417C102.072 24.0957 101.475 24.6644 100.725 25.048C99.9747 25.4183 99.1439 25.6035 98.2327 25.6035ZM98.4538 23.9369C99.164 23.9369 99.7938 23.7914 100.343 23.5005C100.893 23.2095 101.321 22.8061 101.63 22.2902C101.951 21.7744 102.112 21.1792 102.112 20.5046C102.112 19.8301 101.951 19.2349 101.63 18.719C101.321 18.2032 100.893 17.8064 100.343 17.5286C99.7938 17.2376 99.164 17.0921 98.4538 17.0921C97.7436 17.0921 97.1071 17.2376 96.5443 17.5286C95.9949 17.8064 95.5594 18.2032 95.2378 18.719C94.9296 19.2349 94.7755 19.8301 94.7755 20.5046C94.7755 21.1792 94.9296 21.7744 95.2378 22.2902C95.5594 22.8061 95.9949 23.2095 96.5443 23.5005C97.1071 23.7914 97.7436 23.9369 98.4538 23.9369Z" fill="#333333"/>
<path d="M112.351 30.008C111.373 30.008 110.422 29.8691 109.497 29.5913C108.586 29.3268 107.842 28.9432 107.266 28.4406L108.191 26.9725C108.687 27.3957 109.296 27.7264 110.02 27.9645C110.743 28.2158 111.501 28.3414 112.291 28.3414C113.551 28.3414 114.475 28.0504 115.065 27.4685C115.655 26.8865 115.949 26.0003 115.949 24.8099V22.5878L116.15 20.5046L116.05 18.4016V15.5248H117.879V24.6115C117.879 26.4632 117.41 27.8256 116.472 28.6985C115.534 29.5715 114.16 30.008 112.351 30.008ZM112.11 25.6035C111.078 25.6035 110.154 25.3919 109.336 24.9686C108.532 24.5321 107.889 23.9303 107.407 23.1632C106.938 22.396 106.703 21.5098 106.703 20.5046C106.703 19.4862 106.938 18.6 107.407 17.8461C107.889 17.0789 108.532 16.4837 109.336 16.0605C110.154 15.6372 111.078 15.4256 112.11 15.4256C113.021 15.4256 113.852 15.6107 114.603 15.9811C115.353 16.3382 115.949 16.8937 116.392 17.6477C116.847 18.4016 117.075 19.3539 117.075 20.5046C117.075 21.6421 116.847 22.5878 116.392 23.3417C115.949 24.0957 115.353 24.6644 114.603 25.048C113.852 25.4183 113.021 25.6035 112.11 25.6035ZM112.331 23.9369C113.042 23.9369 113.671 23.7914 114.221 23.5005C114.77 23.2095 115.199 22.8061 115.507 22.2902C115.829 21.7744 115.99 21.1792 115.99 20.5046C115.99 19.8301 115.829 19.2349 115.507 18.719C115.199 18.2032 114.77 17.8064 114.221 17.5286C113.671 17.2376 113.042 17.0921 112.331 17.0921C111.621 17.0921 110.985 17.2376 110.422 17.5286C109.872 17.8064 109.437 18.2032 109.115 18.719C108.807 19.2349 108.653 19.8301 108.653 20.5046C108.653 21.1792 108.807 21.7744 109.115 22.2902C109.437 22.8061 109.872 23.2095 110.422 23.5005C110.985 23.7914 111.621 23.9369 112.331 23.9369Z" fill="#333333"/>
<path d="M126.309 26.159C125.17 26.159 124.165 25.9275 123.294 25.4646C122.437 25.0017 121.767 24.3668 121.284 23.56C120.815 22.7531 120.581 21.8273 120.581 20.7824C120.581 19.7375 120.809 18.8116 121.264 18.0048C121.733 17.1979 122.37 16.5697 123.174 16.12C123.991 15.657 124.909 15.4256 125.927 15.4256C126.959 15.4256 127.87 15.6504 128.661 16.1001C129.452 16.5498 130.068 17.1847 130.51 18.0048C130.966 18.8116 131.194 19.7573 131.194 20.8419C131.194 20.9213 131.187 21.0138 131.174 21.1197C131.174 21.2255 131.167 21.3247 131.153 21.4173H122.088V20.0483H130.148L129.365 20.5245C129.378 19.8499 129.237 19.2481 128.942 18.719C128.648 18.1899 128.239 17.7799 127.716 17.4889C127.207 17.1847 126.611 17.0326 125.927 17.0326C125.257 17.0326 124.661 17.1847 124.139 17.4889C123.616 17.7799 123.207 18.1966 122.913 18.7389C122.618 19.2679 122.47 19.8763 122.47 20.5641V20.8816C122.47 21.5826 122.631 22.2109 122.953 22.7664C123.288 23.3087 123.75 23.7319 124.34 24.0361C124.929 24.3403 125.606 24.4925 126.37 24.4925C126.999 24.4925 127.569 24.3866 128.078 24.175C128.601 23.9634 129.056 23.6459 129.445 23.2227L130.51 24.4528C130.028 25.0083 129.425 25.4315 128.701 25.7225C127.991 26.0135 127.194 26.159 126.309 26.159Z" fill="#333333"/>
<path d="M137.531 26.159C136.459 26.159 135.628 25.8746 135.039 25.3059C134.449 24.7371 134.154 23.9237 134.154 22.8656V13.2233H136.084V22.7862C136.084 23.355 136.225 23.7914 136.506 24.0957C136.801 24.3999 137.216 24.552 137.752 24.552C138.355 24.552 138.858 24.3866 139.26 24.056L139.863 25.4249C139.568 25.6762 139.213 25.8614 138.798 25.9805C138.396 26.0995 137.973 26.159 137.531 26.159ZM132.345 17.0921V15.5248H139.139V17.0921H132.345Z" fill="#333333"/>
<path d="M145.599 26.159C144.527 26.159 143.696 25.8746 143.106 25.3059C142.517 24.7371 142.222 23.9237 142.222 22.8656V13.2233H144.151V22.7862C144.151 23.355 144.292 23.7914 144.574 24.0957C144.868 24.3999 145.284 24.552 145.82 24.552C146.423 24.552 146.925 24.3866 147.327 24.056L147.93 25.4249C147.635 25.6762 147.28 25.8614 146.865 25.9805C146.463 26.0995 146.041 26.159 145.599 26.159ZM140.413 17.0921V15.5248H147.207V17.0921H140.413Z" fill="#333333"/>
<path d="M154.472 26.159C153.4 26.159 152.449 25.9275 151.618 25.4646C150.787 25.0017 150.131 24.3668 149.648 23.56C149.166 22.7399 148.925 21.8141 148.925 20.7824C148.925 19.7375 149.166 18.8116 149.648 18.0048C150.131 17.1979 150.787 16.5697 151.618 16.12C152.449 15.657 153.4 15.4256 154.472 15.4256C155.531 15.4256 156.476 15.657 157.307 16.12C158.151 16.5697 158.807 17.1979 159.276 18.0048C159.759 18.7984 160 19.7242 160 20.7824C160 21.8273 159.759 22.7531 159.276 23.56C158.807 24.3668 158.151 25.0017 157.307 25.4646C156.476 25.9275 155.531 26.159 154.472 26.159ZM154.472 24.4925C155.156 24.4925 155.766 24.3403 156.302 24.0361C156.851 23.7319 157.28 23.3021 157.588 22.7465C157.896 22.1778 158.05 21.5231 158.05 20.7824C158.05 20.0285 157.896 19.3803 157.588 18.8381C157.28 18.2825 156.851 17.8527 156.302 17.5485C155.766 17.2442 155.156 17.0921 154.472 17.0921C153.789 17.0921 153.179 17.2442 152.643 17.5485C152.107 17.8527 151.679 18.2825 151.357 18.8381C151.035 19.3803 150.875 20.0285 150.875 20.7824C150.875 21.5231 151.035 22.1778 151.357 22.7465C151.679 23.3021 152.107 23.7319 152.643 24.0361C153.179 24.3403 153.789 24.4925 154.472 24.4925Z" fill="#333333"/>
<path d="M80.0052 50.84V38.6781H75.1813V36.952H86.8191V38.6781H81.9951V50.84H80.0052Z" fill="#333333"/>
<path d="M92.3712 50.959C91.2322 50.959 90.2272 50.7275 89.3562 50.2646C88.4986 49.8017 87.8286 49.1668 87.3463 48.36C86.8773 47.5531 86.6428 46.6273 86.6428 45.5824C86.6428 44.5375 86.8706 43.6116 87.3262 42.8048C87.7951 41.9979 88.4316 41.3697 89.2356 40.92C90.053 40.457 90.9709 40.2256 91.9893 40.2256C93.0211 40.2256 93.9323 40.4504 94.7229 40.9001C95.5135 41.3498 96.1299 41.9847 96.5721 42.8048C97.0277 43.6116 97.2555 44.5573 97.2555 45.6419C97.2555 45.7212 97.2488 45.8138 97.2354 45.9197C97.2354 46.0255 97.2287 46.1247 97.2153 46.2173H88.1502V44.8483H96.2103L95.4264 45.3245C95.4398 44.6499 95.2991 44.0481 95.0043 43.519C94.7095 42.9899 94.3008 42.5799 93.7782 42.2889C93.269 41.9847 92.6727 41.8326 91.9893 41.8326C91.3193 41.8326 90.723 41.9847 90.2004 42.2889C89.6778 42.5799 89.2691 42.9966 88.9743 43.5389C88.6795 44.0679 88.5321 44.6763 88.5321 45.3641V45.6816C88.5321 46.3826 88.6929 47.0109 89.0145 47.5664C89.3495 48.1087 89.8118 48.5319 90.4014 48.8361C90.991 49.1403 91.6677 49.2924 92.4315 49.2924C93.0613 49.2924 93.6308 49.1866 94.14 48.975C94.6626 48.7634 95.1182 48.4459 95.5068 48.0227L96.5721 49.2528C96.0897 49.8083 95.4867 50.2315 94.7631 50.5225C94.0529 50.8135 93.2556 50.959 92.3712 50.959Z" fill="#333333"/>
<path d="M106.253 50.84V48.6179L106.153 48.2013V44.4118C106.153 43.605 105.912 42.9833 105.429 42.5469C104.96 42.0971 104.25 41.8723 103.299 41.8723C102.669 41.8723 102.052 41.9781 101.449 42.1897C100.846 42.3881 100.337 42.6593 99.9219 43.0032L99.1179 41.5747C99.6673 41.1382 100.324 40.8075 101.088 40.5827C101.865 40.3446 102.676 40.2256 103.52 40.2256C104.98 40.2256 106.106 40.5761 106.897 41.2771C107.687 41.9781 108.082 43.0495 108.082 44.4912V50.84H106.253ZM102.756 50.959C101.965 50.959 101.269 50.8267 100.666 50.5622C100.076 50.2977 99.6204 49.9339 99.2988 49.471C98.9772 48.9949 98.8164 48.4592 98.8164 47.864C98.8164 47.2952 98.9504 46.7794 99.2184 46.3165C99.4998 45.8535 99.9487 45.4832 100.565 45.2054C101.195 44.9277 102.039 44.7888 103.098 44.7888H106.474V46.1577H103.178C102.213 46.1577 101.563 46.3165 101.228 46.6339C100.893 46.9513 100.726 47.3349 100.726 47.7846C100.726 48.3004 100.934 48.7171 101.349 49.0345C101.764 49.3387 102.341 49.4908 103.078 49.4908C103.801 49.4908 104.431 49.3321 104.967 49.0147C105.516 48.6973 105.912 48.2343 106.153 47.6259L106.535 48.9353C106.28 49.557 105.831 50.053 105.188 50.4233C104.545 50.7805 103.734 50.959 102.756 50.959Z" fill="#333333"/>
<path d="M124.979 40.2256C125.837 40.2256 126.594 40.3909 127.251 40.7216C127.907 41.0522 128.417 41.5549 128.778 42.2294C129.154 42.904 129.341 43.7571 129.341 44.7888V50.84H127.412V45.007C127.412 43.9886 127.17 43.2214 126.688 42.7056C126.206 42.1897 125.529 41.9318 124.658 41.9318C124.015 41.9318 123.452 42.0641 122.97 42.3286C122.487 42.5931 122.112 42.9833 121.844 43.4992C121.589 44.015 121.462 44.6565 121.462 45.4237V50.84H119.532V45.007C119.532 43.9886 119.291 43.2214 118.809 42.7056C118.34 42.1897 117.663 41.9318 116.779 41.9318C116.149 41.9318 115.593 42.0641 115.11 42.3286C114.628 42.5931 114.253 42.9833 113.985 43.4992C113.717 44.015 113.583 44.6565 113.583 45.4237V50.84H111.653V40.3248H113.502V43.1222L113.201 42.408C113.536 41.7202 114.052 41.1845 114.749 40.8009C115.445 40.4174 116.256 40.2256 117.181 40.2256C118.199 40.2256 119.077 40.4769 119.814 40.9795C120.551 41.4689 121.033 42.2162 121.261 43.2214L120.477 42.904C120.799 42.0971 121.362 41.449 122.166 40.9597C122.97 40.4703 123.908 40.2256 124.979 40.2256Z" fill="#333333"/>
<path d="M12.1669 6.29071C7.31159 9.92163 3.66809 14.838 1.61652 20.4075C0.431126 23.6255 2.85411 26.8182 6.28483 27.3255C9.71555 27.8329 12.8277 25.411 14.436 22.3771C15.7121 19.9699 17.5187 17.8453 19.7531 16.1744C23.6758 13.2409 28.6057 11.9386 33.4885 12.5461C38.3713 13.1535 42.8196 15.6224 45.8823 19.4249C48.9451 23.2274 50.3791 28.0618 49.8779 32.8944L62.375 34.1572C63.2103 26.103 60.8203 18.0457 55.7157 11.7082C50.6112 5.37062 43.1973 1.25577 35.0593 0.243404C26.9212 -0.768963 18.7049 1.40149 12.1669 6.29071Z" fill="url(#paint0_angular_43_107)"/>
<path d="M46.3044 50.7674C50.1887 47.8627 53.1035 43.9296 54.7447 39.4741C55.693 36.8996 53.7547 34.3455 51.0101 33.9396C48.2655 33.5337 45.7758 35.4712 44.4891 37.8984C43.4683 39.8241 42.023 41.5237 40.2355 42.8605C37.0973 45.2073 33.1535 46.2491 29.2472 45.7632C25.341 45.2772 21.7824 43.3021 19.3322 40.2601C16.882 37.2181 15.7348 33.3506 16.1358 29.4846L6.13815 28.4743C5.46985 34.9177 7.38191 41.3635 11.4655 46.4335C15.5491 51.5035 21.4802 54.7953 27.9906 55.6052C34.501 56.4151 41.0741 54.6788 46.3044 50.7674Z" fill="url(#paint1_angular_43_107)"/>
<path d="M51.2454 54.8086C57.5451 49.6235 61.5396 42.2115 62.375 34.1572L49.8779 32.8943C49.3767 37.7269 46.98 42.1741 43.2002 45.2852C39.4204 48.3962 34.5575 49.9242 29.6513 49.5424C24.7451 49.1606 20.1849 46.8993 16.9457 43.2421C15.1007 41.1589 13.7677 38.7171 13.0123 36.1046C12.0601 32.812 9.50968 29.8179 6.04598 29.6285C2.58228 29.4391 -0.445848 32.081 0.0543369 35.4693C0.920013 41.3336 3.47868 46.8767 7.48791 51.4034C12.8866 57.4989 20.4869 61.2677 28.664 61.904C36.841 62.5404 44.9458 59.9937 51.2454 54.8086Z" fill="url(#paint2_angular_43_107)"/>
<path d="M15.0418 11.9532C10.0021 16.1012 6.80647 22.0309 6.13817 28.4743L16.1358 29.4846C16.5368 25.6185 18.4541 22.0608 21.478 19.5719C24.5018 17.0831 28.392 15.8607 32.317 16.1661C36.242 16.4716 39.8901 18.2806 42.4815 21.2064C43.9575 22.8729 45.0239 24.8264 45.6282 26.9163C46.3899 29.5504 48.4302 31.9457 51.2012 32.0972C53.9721 32.2487 56.3946 30.1352 55.9945 27.4245C55.302 22.7331 53.255 18.2987 50.0477 14.6773C45.7288 9.80097 39.6485 6.78595 33.1069 6.27688C26.5653 5.76782 20.0815 7.80511 15.0418 11.9532Z" fill="url(#paint3_angular_43_107)"/>
<defs>
<radialGradient id="paint0_angular_43_107" cx="0" cy="0" r="1" gradientUnits="userSpaceOnUse" gradientTransform="translate(31.1323 31) rotate(169.826) scale(26.3239 25.9163)">
<stop offset="0.0447915" stop-color="#FEDF13" stop-opacity="0"/>
<stop offset="0.654035" stop-color="#FEDF13"/>
<stop offset="0.99836" stop-color="#FFB800"/>
</radialGradient>
<radialGradient id="paint1_angular_43_107" cx="0" cy="0" r="1" gradientUnits="userSpaceOnUse" gradientTransform="translate(31.1321 31) rotate(-10.1744) scale(21.059 20.733)">
<stop offset="0.0447915" stop-color="#FEDF13" stop-opacity="0"/>
<stop offset="0.654035" stop-color="#FEDF13"/>
<stop offset="0.99836" stop-color="#FFB800"/>
</radialGradient>
<radialGradient id="paint2_angular_43_107" cx="0" cy="0" r="1" gradientUnits="userSpaceOnUse" gradientTransform="translate(30.487 30.5487) rotate(-180) scale(28.1419 26.282)">
<stop offset="0.0447915" stop-color="#FEDF13" stop-opacity="0"/>
<stop offset="0.654035" stop-color="#FEDF13"/>
<stop offset="0.99836" stop-color="#FFB800"/>
</radialGradient>
<radialGradient id="paint3_angular_43_107" cx="0" cy="0" r="1" gradientUnits="userSpaceOnUse" gradientTransform="translate(31.6484 31.361) scale(22.5134 21.0255)">
<stop offset="0.0447915" stop-color="#FEDF13" stop-opacity="0"/>
<stop offset="0.654035" stop-color="#FEDF13"/>
<stop offset="0.99836" stop-color="#FFB800"/>
</radialGradient>
</defs>
</svg>
