<svg width="82" height="24" viewBox="0 0 82 24" fill="none" xmlns="http://www.w3.org/2000/svg">
<path d="M4 12C4 12.2652 4.10536 12.5196 4.29289 12.7071C4.48043 12.8946 4.73478 13 5 13H12.59L10.29 15.29C10.1963 15.383 10.1219 15.4936 10.0711 15.6154C10.0203 15.7373 9.9942 15.868 9.9942 16C9.9942 16.132 10.0203 16.2627 10.0711 16.3846C10.1219 16.5064 10.1963 16.617 10.29 16.71C10.383 16.8037 10.4936 16.8781 10.6154 16.9289C10.7373 16.9797 10.868 17.0058 11 17.0058C11.132 17.0058 11.2627 16.9797 11.3846 16.9289C11.5064 16.8781 11.617 16.8037 11.71 16.71L15.71 12.71C15.801 12.6149 15.8724 12.5028 15.92 12.38C16.02 12.1365 16.02 11.8635 15.92 11.62C15.8724 11.4972 15.801 11.3851 15.71 11.29L11.71 7.29C11.6168 7.19676 11.5061 7.1228 11.3842 7.07234C11.2624 7.02188 11.1319 6.99591 11 6.99591C10.8681 6.99591 10.7376 7.02188 10.6158 7.07234C10.4939 7.1228 10.3832 7.19676 10.29 7.29C10.1968 7.38324 10.1228 7.49393 10.0723 7.61575C10.0219 7.73757 9.99591 7.86814 9.99591 8C9.99591 8.13186 10.0219 8.26243 10.0723 8.38425C10.1228 8.50607 10.1968 8.61676 10.29 8.71L12.59 11H5C4.73478 11 4.48043 11.1054 4.29289 11.2929C4.10536 11.4804 4 11.7348 4 12V12ZM17 2H7C6.20435 2 5.44129 2.31607 4.87868 2.87868C4.31607 3.44129 4 4.20435 4 5V8C4 8.26522 4.10536 8.51957 4.29289 8.70711C4.48043 8.89464 4.73478 9 5 9C5.26522 9 5.51957 8.89464 5.70711 8.70711C5.89464 8.51957 6 8.26522 6 8V5C6 4.73478 6.10536 4.48043 6.29289 4.29289C6.48043 4.10536 6.73478 4 7 4H17C17.2652 4 17.5196 4.10536 17.7071 4.29289C17.8946 4.48043 18 4.73478 18 5V19C18 19.2652 17.8946 19.5196 17.7071 19.7071C17.5196 19.8946 17.2652 20 17 20H7C6.73478 20 6.48043 19.8946 6.29289 19.7071C6.10536 19.5196 6 19.2652 6 19V16C6 15.7348 5.89464 15.4804 5.70711 15.2929C5.51957 15.1054 5.26522 15 5 15C4.73478 15 4.48043 15.1054 4.29289 15.2929C4.10536 15.4804 4 15.7348 4 16V19C4 19.7956 4.31607 20.5587 4.87868 21.1213C5.44129 21.6839 6.20435 22 7 22H17C17.7956 22 18.5587 21.6839 19.1213 21.1213C19.6839 20.5587 20 19.7956 20 19V5C20 4.20435 19.6839 3.44129 19.1213 2.87868C18.5587 2.31607 17.7956 2 17 2Z" fill="white"/>
<path d="M35.526 17V7.2H39.74C40.804 7.2 41.6393 7.41467 42.246 7.844C42.8527 8.27333 43.156 8.89867 43.156 9.72C43.156 10.5227 42.8667 11.1387 42.288 11.568C41.7093 11.988 40.9487 12.198 40.006 12.198L40.258 11.778C41.35 11.778 42.1853 11.9973 42.764 12.436C43.352 12.8653 43.646 13.4953 43.646 14.326C43.646 15.166 43.338 15.824 42.722 16.3C42.1153 16.7667 41.21 17 40.006 17H35.526ZM36.912 15.894H39.978C40.7247 15.894 41.2847 15.7587 41.658 15.488C42.0407 15.208 42.232 14.7833 42.232 14.214C42.232 13.6447 42.0407 13.2293 41.658 12.968C41.2847 12.7067 40.7247 12.576 39.978 12.576H36.912V15.894ZM36.912 11.512H39.642C40.3233 11.512 40.8413 11.3767 41.196 11.106C41.56 10.8353 41.742 10.4387 41.742 9.916C41.742 9.384 41.56 8.98267 41.196 8.712C40.8413 8.44133 40.3233 8.306 39.642 8.306H36.912V11.512ZM53.097 17V9.58H54.441V17H53.097ZM49.107 12.1C50.0497 12.1093 50.7637 12.324 51.249 12.744C51.7437 13.164 51.991 13.7567 51.991 14.522C51.991 15.3247 51.7203 15.9453 51.179 16.384C50.647 16.8133 49.8817 17.0233 48.883 17.014L45.761 17V9.58H47.105V12.086L49.107 12.1ZM48.785 15.992C49.3823 16.0013 49.8397 15.88 50.157 15.628C50.4743 15.376 50.633 15.0027 50.633 14.508C50.633 14.0227 50.4743 13.668 50.157 13.444C49.849 13.22 49.3917 13.1033 48.785 13.094L47.105 13.066V15.978L48.785 15.992ZM55.878 17L59.07 12.856L59.056 13.542L56.018 9.58H57.516L59.84 12.632H59.266L61.59 9.58H63.06L59.98 13.57L59.994 12.856L63.214 17H61.688L59.238 13.752L59.784 13.836L57.376 17H55.878ZM67.5601 17.084C66.8134 17.084 66.1507 16.9207 65.5721 16.594C64.9934 16.2673 64.5361 15.8193 64.2001 15.25C63.8641 14.6713 63.6961 14.018 63.6961 13.29C63.6961 12.5527 63.8641 11.8993 64.2001 11.33C64.5361 10.7607 64.9934 10.3173 65.5721 10C66.1507 9.67333 66.8134 9.51 67.5601 9.51C68.2974 9.51 68.9554 9.67333 69.5341 10C70.1221 10.3173 70.5794 10.7607 70.9061 11.33C71.2421 11.89 71.4101 12.5433 71.4101 13.29C71.4101 14.0273 71.2421 14.6807 70.9061 15.25C70.5794 15.8193 70.1221 16.2673 69.5341 16.594C68.9554 16.9207 68.2974 17.084 67.5601 17.084ZM67.5601 15.908C68.0361 15.908 68.4607 15.8007 68.8341 15.586C69.2167 15.3713 69.5154 15.068 69.7301 14.676C69.9447 14.2747 70.0521 13.8127 70.0521 13.29C70.0521 12.758 69.9447 12.3007 69.7301 11.918C69.5154 11.526 69.2167 11.2227 68.8341 11.008C68.4607 10.7933 68.0361 10.686 67.5601 10.686C67.0841 10.686 66.6594 10.7933 66.2861 11.008C65.9127 11.2227 65.6141 11.526 65.3901 11.918C65.1661 12.3007 65.0541 12.758 65.0541 13.29C65.0541 13.8127 65.1661 14.2747 65.3901 14.676C65.6141 15.068 65.9127 15.3713 66.2861 15.586C66.6594 15.8007 67.0841 15.908 67.5601 15.908ZM78.3641 16.37V10.756H75.1441L75.0741 12.184C75.0555 12.6507 75.0228 13.1033 74.9761 13.542C74.9388 13.9713 74.8735 14.368 74.7801 14.732C74.6961 15.096 74.5701 15.3947 74.4021 15.628C74.2341 15.8613 74.0101 16.006 73.7301 16.062L72.4001 15.824C72.6895 15.8333 72.9228 15.74 73.1001 15.544C73.2775 15.3387 73.4128 15.0587 73.5061 14.704C73.6088 14.3493 73.6835 13.948 73.7301 13.5C73.7768 13.0427 73.8141 12.5713 73.8421 12.086L73.9541 9.58H79.7081V16.37H78.3641ZM72.1061 18.722V15.824H80.8421V18.722H79.5821V17H73.3801V18.722H72.1061Z" fill="white"/>
</svg>
